HIERARCHY
ROOT Hips
{
	OFFSET 42.269901 -9.027307 100.178001
	CHANNELS 6 Xposition Yposition Zposition Xrotation Yrotation Zrotation
	JOINT spine
	{
		OFFSET 0.000000 -0.507026 8.817047
		CHANNELS 3 Xrotation Yrotation Zrotation
		JOINT spine1
		{
			OFFSET 0.000000 -0.000001 10.776604
			CHANNELS 3 Xrotation Yrotation Zrotation
			JOINT spine2
			{
				OFFSET 0.000000 -0.000002 10.325897
				CHANNELS 3 Xrotation Yrotation Zrotation
				JOINT Neck
				{
					OFFSET 0.000000 -1.263955 26.511002
					CHANNELS 3 Xrotation Yrotation Zrotation
					JOINT Head
					{
						OFFSET 0.000000 -0.000001 8.009659
						CHANNELS 3 Xrotation Yrotation Zrotation
						End Site
						{
							OFFSET 0.000000 6.393857 19.387894
						}
					}
				}
				JOINT RightShoulder
				{
					OFFSET -4.347950 0.605420 11.151199
					CHANNELS 3 Xrotation Yrotation Zrotation
					JOINT RightArm
					{
						OFFSET 0.000000 -0.000003 14.625793
						CHANNELS 3 Xrotation Yrotation Zrotation
						JOINT RightArmRoll
						{
							OFFSET 0.000000 -0.000001 7.383392
							CHANNELS 3 Xrotation Yrotation Zrotation
							JOINT RightForeArm
							{
								OFFSET 0.000000 -0.000004 21.505203
								CHANNELS 3 Xrotation Yrotation Zrotation
								JOINT RightForeArmRoll
								{
									OFFSET 0.000000 -0.000001 8.285324
									CHANNELS 3 Xrotation Yrotation Zrotation
									JOINT RightHand
									{
										OFFSET 0.000000 -0.000003 16.626801
										CHANNELS 3 Xrotation Yrotation Zrotation
										End Site
										{
											OFFSET 0.000000 0.000000 0.100006
										}
									}
								}
							}
						}
					}
				}
				JOINT LeftShoulder
				{
					OFFSET 4.347950 0.605420 11.151199
					CHANNELS 3 Xrotation Yrotation Zrotation
					JOINT LeftArm
					{
						OFFSET 0.000000 -0.000003 14.625793
						CHANNELS 3 Xrotation Yrotation Zrotation
						JOINT LeftArmRoll
						{
							OFFSET 0.000000 -0.000001 7.383392
							CHANNELS 3 Xrotation Yrotation Zrotation
							JOINT LeftForeArm
							{
								OFFSET 0.000000 -0.000004 21.505203
								CHANNELS 3 Xrotation Yrotation Zrotation
								JOINT LeftForeArmRoll
								{
									OFFSET 0.000000 -0.000001 8.285324
									CHANNELS 3 Xrotation Yrotation Zrotation
									JOINT LeftHand
									{
										OFFSET 0.000000 -0.000003 16.626801
										CHANNELS 3 Xrotation Yrotation Zrotation
										End Site
										{
											OFFSET 0.000000 0.000000 0.100006
										}
									}
								}
							}
						}
					}
				}
			}
		}
	}
	JOINT RightUpLeg
	{
		OFFSET -7.815102 1.202170 -1.433090
		CHANNELS 3 Xrotation Yrotation Zrotation
		JOINT RightUpLegRoll
		{
			OFFSET 0.000000 -0.000003 19.495903
			CHANNELS 3 Xrotation Yrotation Zrotation
			JOINT RightLeg
			{
				OFFSET 0.000000 0.000004 -24.142700
				CHANNELS 3 Xrotation Yrotation Zrotation
				JOINT RightLegRoll
				{
					OFFSET 0.000000 -0.000004 24.221703
					CHANNELS 3 Xrotation Yrotation Zrotation
					JOINT RightFoot
					{
						OFFSET 0.000000 -0.000003 20.160500
						CHANNELS 3 Xrotation Yrotation Zrotation
						JOINT RightToeBase
						{
							OFFSET 0.000000 -0.000003 16.853195
							CHANNELS 3 Xrotation Yrotation Zrotation
							End Site
							{
								OFFSET 0.007145 0.940780 8.161865
							}
						}
					}
				}
			}
		}
	}
	JOINT LeftUpLeg
	{
		OFFSET 7.815102 1.202170 -1.433090
		CHANNELS 3 Xrotation Yrotation Zrotation
		JOINT LeftUpLegRoll
		{
			OFFSET 0.000000 -0.000003 19.496002
			CHANNELS 3 Xrotation Yrotation Zrotation
			JOINT LeftLeg
			{
				OFFSET 0.000000 -0.000004 24.142601
				CHANNELS 3 Xrotation Yrotation Zrotation
				JOINT LeftLegRoll
				{
					OFFSET 0.000000 -0.000004 24.445602
					CHANNELS 3 Xrotation Yrotation Zrotation
					JOINT LeftFoot
					{
						OFFSET 0.000000 -0.000003 19.936600
						CHANNELS 3 Xrotation Yrotation Zrotation
						JOINT LeftToeBase
						{
							OFFSET 0.000000 -0.000003 16.853195
							CHANNELS 3 Xrotation Yrotation Zrotation
							End Site
							{
								OFFSET -0.032013 0.940779 8.161865
							}
						}
					}
				}
			}
		}
	}
}
MOTION
Frames: 10
Frame Time: 0.041667
44.945297 -6.993714 100.030998 -2.896769 1.064849 22.138486 -0.980058 -0.212317 0.311461 2.044007 -0.428841 0.621023 3.689060 -0.421379 0.626115 21.913841 6.875138 14.800547 -8.317077 18.790694 14.470620 6.088860 -53.480313 7.928081 142.019222 -32.284607 74.875389 -0.000043 -0.000010 -0.000003 78.744151 -6.405318 5.653950 0.000011 0.000018 -3.008250 -4.999681 -7.999389 -0.000073 -20.688240 63.683816 24.404486 92.832516 70.435841 -76.310043 0.000001 -0.000001 -0.000002 40.072184 20.956854 -7.817383 -0.000001 -0.000017 3.000001 -4.999669 7.999376 0.000210 -6.735075 -177.072299 0.599115 -179.999991 0.000006 -1.247994 158.234064 -0.780122 -1.031472 -0.000002 -0.000002 0.536336 72.528003 6.703467 2.408040 27.195392 -7.287989 2.538278 -7.089000 174.355195 1.091587 -0.000005 -0.000004 -0.947134 -15.827283 2.777647 0.948295 -0.000002 -0.000001 -0.214372 72.547612 -6.234980 -3.735627 25.456953 7.355614 -0.000011 
44.943398 -7.100056 100.035004 -2.911601 1.039727 22.205577 -0.980679 -0.213040 0.313790 2.042867 -0.430337 0.625372 3.687921 -0.422832 0.630485 21.902134 6.822729 14.793148 -8.287527 18.838913 14.453652 6.072634 -53.571885 7.893454 141.991505 -32.479452 75.002362 -0.000041 -0.000009 -0.000003 78.778125 -6.351576 5.597564 0.000011 0.000017 -3.008251 -4.999681 -7.999386 -0.000074 -20.641199 63.652500 24.350594 92.885580 70.469944 -76.233893 0.000000 0.000001 -0.000001 40.415168 20.843866 -7.833465 -0.000002 -0.000017 3.000001 -4.999669 7.999377 0.000209 -6.655632 -177.047000 0.589075 -179.999991 0.000005 -1.245999 158.326217 -0.756464 -1.020618 -0.000001 -0.000001 0.535105 72.547640 6.703981 2.402941 27.175965 -7.288995 2.509296 -7.052118 174.357736 1.102148 -0.000004 -0.000004 -0.946351 -15.773019 2.763317 0.945791 -0.000002 -0.000001 -0.213443 72.519137 -6.225597 -3.763367 25.456952 7.355618 -0.000011 
44.904400 -7.086833 100.037003 -2.926780 1.014735 22.272175 -0.981228 -0.213814 0.316217 2.041868 -0.431934 0.629894 3.686922 -0.424382 0.635033 21.890630 6.769918 14.785649 -8.258382 18.887124 14.436467 6.056251 -53.663772 7.858541 141.967012 -32.673863 75.128194 -0.000040 -0.000012 -0.000003 78.812685 -6.297720 5.541089 0.000010 0.000022 -3.008247 -4.999682 -7.999386 -0.000074 -20.593288 63.621108 24.295681 92.941273 70.508500 -76.160625 0.000001 -0.000003 -0.000003 40.763208 20.729749 -7.848324 -0.000004 -0.000017 3.000000 -4.999672 7.999377 0.000209 -6.576370 -177.022685 0.577378 -179.999991 0.000005 -1.245004 158.417755 -0.730901 -1.010104 -0.000002 -0.000002 0.533907 72.567912 6.704483 2.397705 27.156438 -7.289961 2.480167 -7.015226 174.361260 1.112705 -0.000003 -0.000005 -0.945558 -15.719353 2.748767 0.943353 -0.000002 -0.000001 -0.212586 72.490997 -6.216191 -3.790984 25.456950 7.355615 -0.000011 
44.883202 -7.128707 100.046997 -2.942201 0.989819 22.338668 -0.981722 -0.214621 0.318717 2.040969 -0.433601 0.634541 3.686022 -0.426002 0.639703 21.879235 6.716818 14.778036 -8.229527 18.935421 14.419245 6.039729 -53.755761 7.823400 141.945538 -32.867762 75.253822 -0.000041 -0.000009 -0.000004 78.847840 -6.243753 5.484524 0.000010 0.000021 -3.008250 -4.999680 -7.999387 -0.000072 -20.544695 63.589505 24.239981 92.998900 70.550206 -76.089523 0.000001 -0.000001 -0.000003 41.114703 20.615162 -7.862069 -0.000002 -0.000017 3.000001 -4.999668 7.999377 0.000209 -6.497246 -176.998369 0.564462 -179.999991 0.000005 -1.242995 158.508787 -0.704375 -1.000311 -0.000001 -0.000002 0.532722 72.588723 6.704973 2.392335 27.136792 -7.290900 2.450947 -6.978336 174.363788 1.123457 -0.000004 -0.000004 -0.944756 -15.666191 2.734064 0.940978 -0.000002 -0.000001 -0.211777 72.462973 -6.206763 -3.818681 25.456952 7.355610 -0.000011 
44.872501 -7.141186 100.044983 -2.957760 0.964931 22.404858 -0.982185 -0.215450 0.321247 2.040119 -0.435308 0.639256 3.685172 -0.427661 0.644448 21.867860 6.663560 14.770358 -8.200837 18.983809 14.402046 6.023146 -53.847941 7.788127 141.926550 -33.060995 75.379791 -0.000043 -0.000008 -0.000004 78.883214 -6.189839 5.427837 0.000011 0.000020 -3.008249 -4.999680 -7.999383 -0.000072 -20.495787 63.557834 24.183910 93.057072 70.593789 -76.018919 0.000001 -0.000002 -0.000003 41.467991 20.500478 -7.874514 -0.000004 -0.000017 3.000001 -4.999675 7.999378 0.000209 -6.418195 -176.975037 0.550992 -179.999991 0.000005 -1.241000 158.599520 -0.676883 -0.989249 -0.000001 -0.000002 0.531547 72.609760 6.705464 2.386947 27.117149 -7.291808 2.421664 -6.941443 174.366328 1.134261 -0.000004 -0.000004 -0.943953 -15.613228 2.719281 0.938644 -0.000002 -0.000001 -0.210996 72.435160 -6.197280 -3.846255 25.456948 7.355613 -0.000010 
44.812195 -7.070518 100.060989 -2.973341 0.940020 22.471124 -0.982641 -0.216283 0.323785 2.039289 -0.437025 0.643993 3.684343 -0.429331 0.649206 21.856505 6.610271 14.762569 -8.172169 19.032100 14.384592 6.006491 -53.940142 7.752737 141.908996 -33.255009 75.505658 -0.000042 -0.000010 -0.000004 78.918799 -6.135953 5.371118 0.000009 0.000017 -3.008250 -4.999681 -7.999389 -0.000074 -20.446921 63.526162 24.127862 93.115341 70.637762 -75.948589 0.000001 -0.000002 -0.000003 41.821515 20.386361 -7.885847 -0.000005 -0.000017 3.000001 -4.999672 7.999376 0.000209 -6.339156 -176.950722 0.537304 -179.999991 0.000005 -1.240002 158.690361 -0.648426 -0.977926 0.000000 -0.000002 0.530373 72.630893 6.705940 2.381553 27.097408 -7.292705 2.392368 -6.904540 174.369853 1.144960 -0.000004 -0.000005 -0.943145 -15.560472 2.704475 0.936350 -0.000002 -0.000001 -0.210221 72.407361 -6.187780 -3.873924 25.456952 7.355612 -0.000011 
44.803398 -7.109693 100.067001 -2.988823 0.915041 22.537377 -0.983113 -0.217107 0.326316 2.038420 -0.438722 0.648694 3.683485 -0.430980 0.653931 21.845170 6.557067 14.754928 -8.143395 19.080294 14.367233 5.989775 -54.032226 7.717291 141.892986 -33.448946 75.632870 -0.000042 -0.000009 -0.000003 78.954391 -6.082169 5.314359 0.000011 0.000020 -3.008249 -4.999679 -7.999385 -0.000074 -20.398319 63.494449 24.072143 93.172878 70.680929 -75.877371 0.000001 -0.000002 -0.000003 42.173645 20.273286 -7.896038 -0.000004 -0.000017 3.000000 -4.999670 7.999377 0.000210 -6.260079 -176.927390 0.524158 -179.999991 0.000005 -1.237994 158.781175 -0.620860 -0.968035 -0.000000 -0.000001 0.529197 72.651821 6.706436 2.376174 27.077766 -7.293575 2.363097 -6.867638 174.372394 1.155751 -0.000004 -0.000005 -0.942344 -15.507410 2.689703 0.934068 -0.000003 -0.000001 -0.209433 72.379467 -6.178271 -3.901587 25.456955 7.355616 -0.000009 
44.757401 -7.077688 100.068001 -3.004094 0.889942 22.603806 -0.983620 -0.217905 0.328789 2.037490 -0.440370 0.653306 3.682546 -0.432581 0.658569 21.833779 6.504060 14.747188 -8.114395 19.128604 14.349778 5.973026 -54.124123 7.681817 141.877946 -33.643531 75.761660 -0.000043 -0.000010 -0.000003 78.989731 -6.028615 5.257532 0.000009 0.000018 -3.008251 -4.999681 -7.999385 -0.000074 -20.350409 63.462819 24.017172 93.228899 70.722005 -75.804643 0.000001 -0.000002 -0.000003 42.522927 20.161516 -7.905065 -0.000004 -0.000017 3.000001 -4.999673 7.999377 0.000210 -6.180894 -176.903074 0.511901 -179.999991 0.000005 -1.236002 158.872317 -0.594191 -0.957591 -0.000001 -0.000003 0.528009 72.672530 6.706894 2.370804 27.058121 -7.294435 2.333897 -6.830757 174.374962 1.166493 -0.000004 -0.000004 -0.941543 -15.454165 2.675037 0.931799 -0.000002 -0.000000 -0.208614 72.351490 -6.168743 -3.929153 25.456952 7.355613 -0.000011 
44.724995 -7.095549 100.068008 -3.019032 0.864678 22.670498 -0.984189 -0.218665 0.331183 2.036450 -0.441937 0.657780 3.681506 -0.434104 0.663062 21.822311 6.451396 14.739606 -8.085029 19.176726 14.332428 5.956288 -54.215805 7.646398 141.862715 -33.840206 75.891502 -0.000043 -0.000007 -0.000002 79.024804 -5.975263 5.200640 0.000011 0.000020 -3.008252 -4.999683 -7.999384 -0.000074 -20.303429 63.431277 23.963292 93.282475 70.759510 -75.729299 0.000001 0.000001 -0.000003 42.867695 20.051712 -7.913093 -0.000003 -0.000017 3.000000 -4.999671 7.999377 0.000210 -6.101567 -176.877762 0.501093 -179.999991 0.000005 -1.234999 158.964006 -0.569351 -0.947944 -0.000001 -0.000002 0.526802 72.692611 6.707400 2.365577 27.038576 -7.295301 2.304808 -6.793869 174.377489 1.177150 -0.000004 -0.000005 -0.940755 -15.400313 2.660544 0.929516 -0.000001 -0.000001 -0.207731 72.323200 -6.159196 -3.956726 25.456953 7.355616 -0.000011 
44.696602 -7.073849 100.051010 -3.033543 0.839202 22.737572 -0.984843 -0.219368 0.333475 2.035251 -0.443396 0.662055 3.680316 -0.435517 0.667360 21.810689 6.399176 14.732143 -8.055185 19.224877 14.315071 5.939576 -54.307083 7.611061 141.847470 -34.038142 76.023796 -0.000042 -0.000009 -0.000002 79.059317 -5.922210 5.143751 0.000010 0.000018 -3.008250 -4.999683 -7.999386 -0.000074 -20.257692 63.399858 23.910807 93.332821 70.792254 -75.650492 0.000001 -0.000002 -0.000003 43.206527 19.944241 -7.920248 -0.000002 -0.000017 3.000001 -4.999669 7.999377 0.000209 -6.022023 -176.852435 0.492375 -179.999991 0.000005 -1.232995 159.056405 -0.546356 -0.939100 -0.000001 -0.000002 0.525560 72.711940 6.707901 2.360595 27.019036 -7.296183 2.275868 -6.756976 174.381054 1.187558 -0.000004 -0.000004 -0.939974 -15.345868 2.646278 0.927217 -0.000002 -0.000001 -0.206774 72.294711 -6.149643 -3.984301 25.456950 7.355615 -0.000011 
